<mxfile host="app.diagrams.net" modified="2021-02-07T17:07:29.941Z" agent="5.0 (Windows NT 10.0; Win64; x64) AppleWebKit/537.36 (KHTML, like Gecko) Chrome/88.0.4324.146 Safari/537.36" etag="XJ8Vnab1_xNVadpaKnzQ" version="14.2.9" type="github">
  <diagram id="f-Bf7XFRQChG1_Yta-B7" name="Page-1">
    <mxGraphModel dx="593" dy="331" grid="1" gridSize="10" guides="1" tooltips="1" connect="1" arrows="1" fold="1" page="1" pageScale="1" pageWidth="827" pageHeight="1169" math="0" shadow="0">
      <root>
        <mxCell id="0" />
        <mxCell id="1" parent="0" />
        <mxCell id="jDAC0IE5ltSsmeyB-JPj-1" value="A" style="ellipse;whiteSpace=wrap;html=1;aspect=fixed;" vertex="1" parent="1">
          <mxGeometry x="150" y="80" width="40" height="40" as="geometry" />
        </mxCell>
        <mxCell id="jDAC0IE5ltSsmeyB-JPj-2" value="B" style="ellipse;whiteSpace=wrap;html=1;aspect=fixed;" vertex="1" parent="1">
          <mxGeometry x="230" y="50" width="40" height="40" as="geometry" />
        </mxCell>
        <mxCell id="jDAC0IE5ltSsmeyB-JPj-3" value="C" style="ellipse;whiteSpace=wrap;html=1;aspect=fixed;" vertex="1" parent="1">
          <mxGeometry x="310" y="80" width="40" height="40" as="geometry" />
        </mxCell>
        <mxCell id="jDAC0IE5ltSsmeyB-JPj-4" value="D" style="ellipse;whiteSpace=wrap;html=1;aspect=fixed;" vertex="1" parent="1">
          <mxGeometry x="180" y="150" width="40" height="40" as="geometry" />
        </mxCell>
        <mxCell id="jDAC0IE5ltSsmeyB-JPj-5" value="E" style="ellipse;whiteSpace=wrap;html=1;aspect=fixed;" vertex="1" parent="1">
          <mxGeometry x="270" y="150" width="40" height="40" as="geometry" />
        </mxCell>
        <mxCell id="jDAC0IE5ltSsmeyB-JPj-6" value="A" style="ellipse;whiteSpace=wrap;html=1;aspect=fixed;" vertex="1" parent="1">
          <mxGeometry x="480" y="80" width="40" height="40" as="geometry" />
        </mxCell>
        <mxCell id="jDAC0IE5ltSsmeyB-JPj-7" value="B" style="ellipse;whiteSpace=wrap;html=1;aspect=fixed;" vertex="1" parent="1">
          <mxGeometry x="560" y="50" width="40" height="40" as="geometry" />
        </mxCell>
        <mxCell id="jDAC0IE5ltSsmeyB-JPj-8" value="C" style="ellipse;whiteSpace=wrap;html=1;aspect=fixed;" vertex="1" parent="1">
          <mxGeometry x="640" y="80" width="40" height="40" as="geometry" />
        </mxCell>
        <mxCell id="jDAC0IE5ltSsmeyB-JPj-9" value="D" style="ellipse;whiteSpace=wrap;html=1;aspect=fixed;" vertex="1" parent="1">
          <mxGeometry x="510" y="150" width="40" height="40" as="geometry" />
        </mxCell>
        <mxCell id="jDAC0IE5ltSsmeyB-JPj-10" value="E" style="ellipse;whiteSpace=wrap;html=1;aspect=fixed;" vertex="1" parent="1">
          <mxGeometry x="610" y="150" width="40" height="40" as="geometry" />
        </mxCell>
        <mxCell id="jDAC0IE5ltSsmeyB-JPj-11" value="" style="endArrow=classic;html=1;entryX=0.75;entryY=0;entryDx=0;entryDy=0;entryPerimeter=0;exitX=1;exitY=1;exitDx=0;exitDy=0;" edge="1" parent="1" source="jDAC0IE5ltSsmeyB-JPj-1" target="jDAC0IE5ltSsmeyB-JPj-4">
          <mxGeometry width="50" height="50" relative="1" as="geometry">
            <mxPoint x="180" y="90" as="sourcePoint" />
            <mxPoint x="230" y="40" as="targetPoint" />
          </mxGeometry>
        </mxCell>
        <mxCell id="jDAC0IE5ltSsmeyB-JPj-12" value="" style="endArrow=classic;html=1;exitX=0.966;exitY=0.599;exitDx=0;exitDy=0;exitPerimeter=0;" edge="1" parent="1" source="jDAC0IE5ltSsmeyB-JPj-1" target="jDAC0IE5ltSsmeyB-JPj-5">
          <mxGeometry width="50" height="50" relative="1" as="geometry">
            <mxPoint x="180" y="80" as="sourcePoint" />
            <mxPoint x="200" y="160" as="targetPoint" />
          </mxGeometry>
        </mxCell>
        <mxCell id="jDAC0IE5ltSsmeyB-JPj-13" value="" style="endArrow=classic;html=1;entryX=0;entryY=0.5;entryDx=0;entryDy=0;exitX=1;exitY=0.5;exitDx=0;exitDy=0;" edge="1" parent="1" source="jDAC0IE5ltSsmeyB-JPj-1" target="jDAC0IE5ltSsmeyB-JPj-3">
          <mxGeometry width="50" height="50" relative="1" as="geometry">
            <mxPoint x="200" y="110" as="sourcePoint" />
            <mxPoint x="220" y="190" as="targetPoint" />
          </mxGeometry>
        </mxCell>
        <mxCell id="jDAC0IE5ltSsmeyB-JPj-14" value="" style="endArrow=classic;html=1;" edge="1" parent="1" source="jDAC0IE5ltSsmeyB-JPj-2" target="jDAC0IE5ltSsmeyB-JPj-5">
          <mxGeometry width="50" height="50" relative="1" as="geometry">
            <mxPoint x="260" y="80" as="sourcePoint" />
            <mxPoint x="280" y="160" as="targetPoint" />
          </mxGeometry>
        </mxCell>
        <mxCell id="jDAC0IE5ltSsmeyB-JPj-15" value="" style="endArrow=classic;html=1;" edge="1" parent="1" source="jDAC0IE5ltSsmeyB-JPj-2" target="jDAC0IE5ltSsmeyB-JPj-4">
          <mxGeometry width="50" height="50" relative="1" as="geometry">
            <mxPoint x="220" y="130" as="sourcePoint" />
            <mxPoint x="240" y="210" as="targetPoint" />
          </mxGeometry>
        </mxCell>
        <mxCell id="jDAC0IE5ltSsmeyB-JPj-16" value="" style="shape=flexArrow;endArrow=classic;html=1;endWidth=21.142857142857142;endSize=9.314285714285715;width=28;" edge="1" parent="1">
          <mxGeometry width="50" height="50" relative="1" as="geometry">
            <mxPoint x="370" y="120" as="sourcePoint" />
            <mxPoint x="480" y="120" as="targetPoint" />
          </mxGeometry>
        </mxCell>
        <mxCell id="jDAC0IE5ltSsmeyB-JPj-21" value="&lt;span style=&quot;box-sizing: border-box ; font-weight: 600 ; color: rgb(64 , 64 , 64)&quot;&gt;&lt;font style=&quot;font-size: 11px&quot;&gt;Co-citation&lt;/font&gt;&lt;/span&gt;" style="edgeLabel;html=1;align=center;verticalAlign=middle;resizable=0;points=[];" vertex="1" connectable="0" parent="jDAC0IE5ltSsmeyB-JPj-16">
          <mxGeometry x="-0.3695" y="1" relative="1" as="geometry">
            <mxPoint x="15.14" as="offset" />
          </mxGeometry>
        </mxCell>
        <mxCell id="jDAC0IE5ltSsmeyB-JPj-18" value="2" style="endArrow=none;html=1;exitX=1;exitY=0.5;exitDx=0;exitDy=0;" edge="1" parent="1" source="jDAC0IE5ltSsmeyB-JPj-9" target="jDAC0IE5ltSsmeyB-JPj-10">
          <mxGeometry width="50" height="50" relative="1" as="geometry">
            <mxPoint x="570" y="180" as="sourcePoint" />
            <mxPoint x="620" y="130" as="targetPoint" />
          </mxGeometry>
        </mxCell>
        <mxCell id="jDAC0IE5ltSsmeyB-JPj-20" value="1" style="endArrow=none;html=1;" edge="1" parent="1" source="jDAC0IE5ltSsmeyB-JPj-10" target="jDAC0IE5ltSsmeyB-JPj-8">
          <mxGeometry width="50" height="50" relative="1" as="geometry">
            <mxPoint x="370" y="170" as="sourcePoint" />
            <mxPoint x="420" y="120" as="targetPoint" />
          </mxGeometry>
        </mxCell>
        <mxCell id="jDAC0IE5ltSsmeyB-JPj-24" value="1" style="endArrow=none;html=1;" edge="1" parent="1" source="jDAC0IE5ltSsmeyB-JPj-9" target="jDAC0IE5ltSsmeyB-JPj-8">
          <mxGeometry width="50" height="50" relative="1" as="geometry">
            <mxPoint x="570" y="160" as="sourcePoint" />
            <mxPoint x="620" y="110" as="targetPoint" />
            <Array as="points">
              <mxPoint x="600" y="130" />
            </Array>
          </mxGeometry>
        </mxCell>
      </root>
    </mxGraphModel>
  </diagram>
</mxfile>
